<?xml version="1.0" encoding="utf-8"?>
<!-- Generator: Adobe Illustrator 25.0.1, SVG Export Plug-In . SVG Version: 6.00 Build 0)  -->
<svg version="1.1" id="Layer_1" xmlns="http://www.w3.org/2000/svg" xmlns:xlink="http://www.w3.org/1999/xlink" x="0px" y="0px"
	 viewBox="0 0 613.3 571.5" style="enable-background:new 0 0 613.3 571.5;" xml:space="preserve">
<style type="text/css">
	.st0{fill:#000001;}
</style>
<g id="a">
</g>
<g id="b">
	<g id="c">
		<g>
			<path class="st0" d="M521.9,447.2C521.9,447.2,521.9,447.2,521.9,447.2c0.4,0.2,0.7,0,1-0.3c0.9-0.8,1.3-2.1,2.1-3
				c2.8-3.9,5.9-7.3,9.1-10.9c3.5-3.8,7.3-7.5,10-12c0.8-1.4,2.1-3.4,3-5c1.3-2.9,2.8-5.7,4.7-8.3c5.1-6.7,12.2-11.3,17.9-17.4
				c3.9-4.2,6.8-9.3,8.9-14.8c1.3-3.8,2-7.9,3.9-11.5c1.5-2.6,3.1-4.8,5.4-6.9c8-6.6,14-15.8,16.8-25.9c1.5-6.8,2.1-13.4,4.2-20.2
				c0.9-3.3,2.4-6.4,4-9.4c1.1-2.9-1-3.1-2.2-0.9c-0.8,0-1.3,0.7-1.8,1.3c-0.8,1.3-1.4,2.6-2.1,4.2c-2.6,3-4.7,6.3-7.4,9.3
				c-3.5,4-7.6,8.1-11.1,12.2c0,0,0.1-0.1,0.1-0.1l0,0c-3.5,3.9-6.9,7.9-9.4,12.4c-3.8,7.1-6.7,14.7-10.2,21.9
				c-4.9,10.7-10.6,21.1-15,32.1c-4.5,11.1-9.8,22.3-18.2,31.1c-1.5,1.8-3,3.6-4.4,5.5c3.3-6.1,6.5-12.2,9.7-18.3
				c12.5-24.1,24-48.8,29-75.6c0-0.1,0-0.2,0.1-0.3c1-2.5,1.9-5,2.4-7.6c0.1-0.1,0.2-0.2,0.3-0.4c1.7-2,3.5-3.9,4.9-6.1
				c2.2-4.3,1.7-9.3,1.4-14c-0.4-3.7-0.6-7.5-2.2-10.9c-0.2-0.3-0.4-0.7-0.6-1c1.9-3.5,3-7.4,5.3-10.8c6.5-9.5,16.7-16.5,22.9-26.3
				c5.6-10.4,10.8-21.2,7.3-33.2c-0.4-1.8-0.3-3.7-0.5-5.5c-0.2-1.8-0.9-3.4-1.5-5.1c0.1-1-0.2-2.2-1.4-1.5
				c-0.9,0.5-1.4,1.6-1.6,2.6c-1.1,2.1-1.8,4.4-2.4,6.7c-1,6.5-2.1,13.1-4.8,19.2c-3.7,6.9-6.7,13.7-10.7,20.5
				c-4.5,7.6-8.8,15.2-12,23.5c-0.6,1.7-1.2,3.4-1.7,5.2c0.1-2,0.3-4,0.4-6c0.6-11.3,1.2-22.7,1.1-34c0.3-1.1,0.5-2.4,0.6-2.7
				c2,4.2,2.4-8.8,2.9-10.4c1.3-6.3,3.8-12.3,5.1-18.7c2.2-8.5,4.7-17.4,3.5-26.2c-0.9-7-3.6-13.7-4.8-20.6
				c-1.1-8.9-1.8-17.8-4.7-26.3c-1-4.1-2.5-7.9-4.9-11.3c-3-5.4-6.6-10.4-10.3-15.3c-3.5-4.9-8-8.8-12.9-12.3c-2.4-1.7-5-2.9-7.1-5
				c-2.8-2.4-6.3-3.7-9-6.2c-0.4-0.3-0.7-0.6-1.1-0.9c-0.3-0.2-0.8-0.8-1.2-0.6c-0.7,0.3-0.5,1.4-0.3,1.9c2.4,5,5.1,9.6,8.6,14.1
				c2.5,3,5.6,5.4,7.4,9c4.9,10,10.3,19.9,14.3,30.3c1.6,3.7,3.3,7.3,4.8,11c2.5,6.9,3.7,14.2,5,21.4c1.5,8.1,1.9,15.9,2.4,24.3
				c0.6,7.9,1.6,15.8,2.2,23.8c-0.4,1.6-0.8,3.2-1.1,4.7c-0.1-1-0.2-2-0.3-3c-3.7-30.9-11-62.7-29.1-88.6c-8.7-12.2-19.4-23-30.5-33
				c-10.8-9.8-22.3-18.8-34.9-26.1c-19.1-11-39-20.8-59.8-28c-4.2-1.3-7.6-4.4-11.6-6.4c-3.1-1.8-6.3-3.3-9.6-4.6
				c-9-3.6-18.7-4.2-28.3-5.1c-14.1-4-28.6-6.9-43.3-6.3c-4.7,0.2-9.4,0.8-14,1.8c-6.2-0.3-12.3-0.4-18.5-0.1
				c-11,0.5-21.9,2.9-32.5,6c-25.8,7.9-51.6,16.8-74.5,31.4c-12.7,4.6-24.9,10.6-36.5,17.6c-21,12.9-40.1,28.9-58.1,45.7
				c-6.7,6.7-13,13.8-18.8,21.3c4.5-8.4,11.9-15,18.7-21.6c7.5-6.4,10.8-16,13.4-25.2c1.9-0.5,2.5-2.6,3.4-4.1
				c1.3-2.3,2.9-5,4.3-7.3c6-5.3,12.4-10.1,18.8-14.9c2.9-2.1,6.2-3.5,8.9-5.7c4.2-2.9,6.9-7.2,10.2-11c3.6-3.8,8.4-6,12.9-8.6
				c2.5-1.5,4.9-3.1,7.3-4.7c9.1-5.8,14.1-15.6,19.5-24.6c1.4-2.3,3.1-4.4,4-6.9c0.8-2.6,1.5-5.2,2.7-7.7c0.1-0.3,0.2-0.6,0.3-0.9
				c0.2-0.6,0.4-1.2,0.6-1.7c0.2-0.5,0.4-1,0.6-1.4c0.2-0.6,0.4-1.1,0.7-1.7c0.2-0.4,0.5-0.8,0.7-1.3c0.2-0.4,0.4-0.8,0.6-1.2l0,0
				c0.1-0.3,0.3-0.7,0.5-1c0.2-0.3,0.4-0.6,0.6-0.9c0.4-0.6,0.6-1.3,0.9-1.9c0.2-0.3,0.3-0.6,0.5-0.9c0.4-2.2-0.5-4.5-3-2.2
				c-4.6,3.1-9.3,5.9-13.8,9c-5.8,3.9-11.8,7.6-17.7,11.4c-9.1,5.9-17.6,12.7-25.8,19.9c-11.3,9.4-18.2,22.6-25.7,35
				c-3.8,6.2-5.6,13.2-8.3,19.9c-2.7,5.8-4.7,12.2-6.3,18.5c-2.3,7.3-5.3,14.5-11.1,19.8c-6.5,6.9-13.7,13.5-18,22.2
				c-0.8,1.5-1.7,3.1-2.3,4.7c-10.1,13.6-18.6,28.5-24.7,44.3c0.2-2,0.4-4.1,0.5-6.2c0.5-5.4,0.6-10.5,2.3-15.8
				c2.7-10.7,10-19.8,12.6-30.6c1.9,2.3,3.2-7.1,3.7-8.6c3.8-7.6,9.2-14.4,14.9-20.6c3.9-4.1,8.3-7.7,11.5-12.3
				c2.5-4,4.6-8.3,5.9-12.8c1.1-5.3,0.9-11.1,2.7-16.5c1.8-5.2,3.8-10.4,7-14.9c1.8-2.5,3.8-4.9,5.3-7.5c2-3.1,2.8-6.2,0.6-9.5
				c-0.1-2.1-1.2-2.7-2.9-1.8c-5,2.3-9.7,5.3-13.8,9c-9.6,9.1-17.8,19.9-24,31.6c-4.8,10.4-8.6,21.4-10.3,32.8
				c-0.8,7.5-1.2,15-1.6,22.5c-0.2,4.5-0.8,9-2.6,13.1c-5.6,12.3-12.2,24.7-12.4,38.6c-0.3,4-0.5,8-0.7,12c0,0.2,0,0.4,0,0.6
				c-0.4,1.1-0.8,2.3-1.2,3.4c-6,17.6-9.1,36-9.9,54.6c-0.1,1.1-0.1,2.2-0.1,3.3c-0.8-6.4-1.7-12.7-2.8-19.1c2.1-10,0.7-20-1.1-29.9
				c-0.3-4.7-0.2-9.5-0.5-14.3c0.4-11.6,0.5-23.2,0.8-34.7c0.2-6.6,2-13,3.2-19.5c0.4-5.5,2.2-10.6,4.1-15.7
				c2.2-7.2,3.4-14.7,4-22.2c0.2-2.3,0.4-4.6,0.4-6.9c0.5-1,0.8-4.6-1.1-4.3c-0.8-0.4-1.6,1.1-2,1.7c-0.3,0.5-0.6,1.1-0.8,1.7
				c-4.9,5.7-9.7,11.5-13.3,18.1c-2.9,6-6.1,11.9-8.1,18.2c-3.7,13.2-6.7,26.8-7.4,40.5c-0.2,9,0.8,18,2.4,26.9
				c0.8,4.4,2,8.8,3.8,12.9c1.7,4,4.6,7.5,6.5,11.4c2.6,5.8,4.6,11.9,6.6,17.9c0.2,0.5,0.4,1.1,1,1.2c1.7,9.6,3.5,19.1,4.1,28.8
				c-0.1,12.6,0.7,25.2,2.5,37.7c-0.6,9.3-0.7,18.7-0.4,28c-0.5-1-1-2-1.6-2.9c-2.4-5.2-4.5-10.6-7.5-15.5c-0.2-0.4-0.3-0.7-0.5-1.1
				c-0.4-1.7-0.7-3.4-1.2-5c-1.4-4.1-3.7-7.7-5.5-11.6c-3.4-6.7-7.2-13.2-10.8-19.8c-1.7-4.9-3.1-9.8-6-14.2c-0.7-1-2.1-3.1-3.5-3.7
				c-0.2-0.3-0.4-0.6-0.5-0.9c-0.1-0.1-0.1-0.2-0.2-0.3l0,0c-1.6,1.1-1.5,3.5-0.9,5.1c-0.8,9.8,1.3,19.6,2.1,29.3
				c1.9,17.3,2.7,25.4,12.9,40.1c6.2,9.3,15.6,15,24.4,21.5c0.1,0.6,0.1,1.2,0.2,1.8c3.7,33.6,17.3,64.6,35.3,92.9
				c24.6,41.3,71.8,78.3,116.2,96.3c16.2,6.2,33.5,8.2,50.7,9.3c15.3,1,30.6,1.3,46,1.5c14.1-0.1,28.3-1.2,42-4.7
				c18.5-5,36.5-12,54.5-18.6c15.5-2.1,30.5-7.2,44.5-14.2c7.7-3.9,15.1-8.3,22.3-13c1.6-0.5,3.2-1,4.8-1.6c2.8,2,6.3-0.3,9.4-0.1
				c6-0.3,11.8,1.8,17.8,1.8c2.5,0.1,5.7,0.3,8.3-0.1c5.6-1.1,10.8-3.8,16.1-5.8c4-2.1,8-4.2,12.1-6c1.8-0.5,3.7-0.9,5.5-1.6
				c1.2-0.5,0.3-1.8-0.5-2.1c-1.4-0.9-3.1-0.9-4.6-0.2c-5.3,1.2-10.7,1.9-16.1,2.4c-6.1,0-12.2-0.9-18.2,0.1c-8,1.3-16,2.9-23,7.1
				c-1.7,1.2-3.9,1.3-5.8,2.2c2-1.4,4-2.8,6-4.3c7.5-5.7,15.1-11.4,22.2-17.7c5.6-2.8,10.5-5.3,16-8.4c3.8-2,8-1.4,12.1-1.5
				c6.1-0.8,12-3.3,17.3-6.3c6.3-3.7,11-9.5,16.2-14.5c3.9-4.2,7-9.1,10.9-13.4c2.2-2.7,4.8-4.6,7.5-7c5.1-4.7,10.5-9.4,14.2-15.3
				c2-3.2,4.3-5.8,6.7-8.7c3.1-4,4.8-8.7,7-13.2c1.6-3.2,2.9-6.6,4.2-10.1c1.8-4.7,3.2-9.7,5.9-14.1c2.4-3.9,5.3-8.2,7.6-12.4
				c0.7-1.6,1.5-3.4,0.7-5.1c-0.1-0.9-0.4-2-1.3-2.5c-0.6-0.2-1.1,0.4-1.4,0.8c-3.3,3.7-6.5,7.5-9.8,11.3
				c-7.7,9.2-15.8,18.1-25.2,25.6c-7.1,6.2-14.6,11.8-21.9,17.7c-8.8,8.1-18.1,16-25.6,25.3c-7.6,9.6-12,21.2-19.7,30.8
				c-2.5,2.9-5.5,5.2-8.5,7.5c6.3-7.5,11.8-15.7,17-24c0.3-0.1,0.6-0.5,0.8-0.7c0.3-0.3,0.6-1,0.5-1.4c0.5-0.8,1-1.7,1.5-2.5
				C519.7,451.1,520.8,449.2,521.9,447.2L521.9,447.2z M602.1,331.1c-2.2,9.1-7.6,17.2-14.7,23.3c-4.2,4-7.2,9.1-8.8,14.6
				c-3.2,14-8.7,19.1-19,28.3c0.3-0.4,0.7-0.8,1-1.2c8.8-11.7,10.5-27.3,18.7-39.6c1.7-2.8,4.1-4.9,6.4-7.1c3.6-3.6,7.1-7.5,10-11.7
				c2.6-4.2,3.8-9.1,5.6-13.6c1.2-2.8,2.4-5.6,3.5-8.4C603.7,320.7,602.9,325.9,602.1,331.1L602.1,331.1z M554.1,398.9
				c6.3-12.5,12.2-25.7,18-38.5c3.4-7,6-14.5,10.1-21.1c6.1-8.9,14.1-16.2,21.1-24.3c-1.3,3.4-2.5,5.7-3.8,9
				c-1.4,3.5-2.4,7.2-4.1,10.6c-3.4,5.8-8.5,10.4-13.5,14.9c-5.6,5.7-8.9,13.4-12.2,20.6c-2.8,7.2-5.3,15.2-9.7,21.8
				C558.3,394.4,556,396.5,554.1,398.9L554.1,398.9L554.1,398.9L554.1,398.9z M608.5,228c2.3,8.8,1,16-3.2,23.9
				c-1.4,2.8-2.5,5.7-4.4,8.3c-2.6,3.4-5.5,6.4-8.5,9.6c4.8-6.2,8.6-13.1,11.1-20.5C605.8,242.3,607.9,235.5,608.5,228L608.5,228z
				 M586.4,270.8c2.1-3.8,4.4-7.5,6.3-11.4c2.8-6,5.7-11.9,8.6-17.8c1.5-3.9,2.4-8,3.4-12c0.7-3.5,0.7-7.1,2.2-10.4
				c0.8,3.7-0.3,7.7-0.8,11.4c-0.7,4.5-1.7,8.8-3.4,13c-3.1,11-9.5,20.9-17.3,29.2C585.7,272.2,586,271.5,586.4,270.8L586.4,270.8z
				 M578,245.6c0,0,0-0.1,0-0.1c0,0.3-0.1,0.6-0.2,0.9c0-0.1,0-0.2,0-0.3c0.2-1,0.3-2,0.5-3C578.2,243.9,578.1,244.7,578,245.6
				L578,245.6z M568,129.8c3.8,5.5,7.6,11.2,9.3,17.8c3.7,10,3.4,21.1,6.3,31.3c1.7,6.3,3.7,12.6,3.7,19.2c-0.4,8-2.2,15.9-4.4,23.6
				c-1.4,5.8-3.7,11.3-4.2,17.3c0-0.7,0.1-1.4,0.1-2.1c-0.2-7,2.4-13.7,2.4-20.7c0.4-3.8,0.3-7.7-0.2-11.5
				c-0.2-9.1-0.9-18.2-1.4-27.2c-0.4-6.4-0.3-12.9-1.7-19.1c-1.6-6.1-4.1-12-6.9-17.6c-3.5-6.4-6.6-13-11-18.9
				c-3-3.6-6.7-6.7-9.7-10.4C557.7,116.1,563.5,122.4,568,129.8L568,129.8z M574.4,179.7c-1.5-9.2-3.6-18.3-7.8-26.7
				c-3.4-7.5-6.4-15.2-10.4-22.4c-2.6-4.4-4.7-9.1-7.2-13.5c-3.5-5.2-8.7-9-11.5-14.7c3,2.1,4.7,5.3,7.5,7.9c3.3,3,6,6.5,9,9.7
				c2.2,2.3,4.5,4.4,6.2,7c3.8,6.1,7.4,12.8,10.6,19.7c2.2,5.1,4.5,10.3,5.1,15.9c0.8,11.8,1.5,23.1,2.2,35.1
				c0.4,8.2,1.5,16.2,0.2,24.5c-0.3-3.9-0.7-7.7-1-11.5c0,0.1,0,0.2,0,0.2l0,0.1C576.8,200.5,576.5,190,574.4,179.7L574.4,179.7z
				 M191.3,28.3c-3,5.3-6.1,10.6-9.8,15.4c-6.4,7.9-15.9,12.1-24.2,17.6c-4.4,2.8-7,7.3-10.3,11.1c-3,3.1-6.6,5.5-10.4,7.6
				c-5.6,3.8-10.6,8.4-15.9,12.6c0.4-0.7,0.8-1.3,1.2-2c3.9-7.3,8.1-14.7,13.9-20.7c3.3-3.3,7-6.7,10.7-9.6c3.8-2.7,8.1-4.8,12.2-7
				c15.1-7.8,27.5-19.7,37.2-33.6C195.1,22.9,192.8,25.4,191.3,28.3L191.3,28.3z M116.1,90.3c2.4-7.1,6.6-13.4,10.6-19.8
				c3.2-5.1,6.3-10.2,10.2-14.9c8.4-9.7,18.9-17.3,29.1-24.9c11.7-7.7,23.6-15.3,35.1-23.4c-9.6,16.1-21.7,31.4-38.3,40.6
				c-4.5,2.7-9.4,4.8-13.9,7.5c-6,3.8-11.2,8.6-15.9,13.8c-3.4,4.1-6.3,8.6-9,13.1c-3.5,6.3-6.7,13-11.7,18.3
				C113.7,97.2,114.9,93.8,116.1,90.3L116.1,90.3z M114.6,54.6c0.1,0.1,0.1,0.3,0.2,0.4l0,0.1c-2,3.9-5.1,7.1-7.4,10.8
				c-3.3,5.9-5.8,12.3-7.2,19c-0.9,4.1-0.8,8.4-1.6,12.6c-1.9,6.2-5.1,12-10,16.5c-6.8,6.5-12.9,13.6-18,21.5c0.5-1.5,0.9-3,1.3-4.5
				c1.2-5.4,3.5-10,6.4-14.7c4-6.3,5.3-13.7,7.4-20.7c1.2-5.4,4.5-10,7.7-14.5c2.4-3.6,4.6-7.3,7.3-10.7
				C105.1,64.8,110.4,60.1,114.6,54.6L114.6,54.6z M67.9,117.7c1.9-8.6,4.9-16.9,8.5-24.9c3.3-6.9,7.9-13,12.6-19.1
				c6.3-8,13.6-15.6,22.8-20.1c-3.7,4.3-7.6,8.2-11.3,12.5c-4.6,5.8-8.3,12.2-12.5,18.3c-3.9,6.2-5.2,13.6-7.2,20.5
				c-1.8,5.4-5,9.9-7.6,15.1c-3.6,8.1-4.9,17.1-7.9,25.5C66,136.2,66.2,126.8,67.9,117.7L67.9,117.7z M24.2,226.9
				c-5.3-7.5-7.2-16.5-8.3-25.5c-0.7-6.4-1.4-12.8-1.1-19.2c0.8-12.2,3.7-24.2,6.9-35.9c3.5-9.9,8.4-19.4,14.7-27.8
				c-3.9,8.2-6.8,16.8-8.8,25.7c-1.2,4.5-2.4,9-3,13.6c-0.9,8.7-1.2,17.3-1.4,26c0,6.5-0.6,13-0.6,19.5c0.1,8.9,1.7,17.8,3.3,26.5
				C25.3,228.8,24.8,227.8,24.2,226.9L24.2,226.9z M32.3,243.4c-0.1-0.5-0.3-0.9-0.4-1.4c-0.6-2.2-1.3-4.3-2-6.5
				c-2.8-10.1-4.3-20.7-4.9-31.1c-0.1-7.2,0.5-14.3,0.5-21.5c0.3-13.3,0.4-26.8,4.5-39.6c1.8-8.3,4.8-15.8,8.3-23.7
				c1.2-3.1,2-6.2,4.3-8.7c-0.5,10.6-2.5,21.2-6.5,31.1c-1.4,4.1-1.6,8-2.4,12.3c-0.7,3.1-1.6,6.2-2.1,9.4
				c-1.4,7.5-1.1,15.2-1.3,22.8c0,9.2-1,18.4-0.4,27.6C29.3,223.8,33.1,233.4,32.3,243.4L32.3,243.4z M490.8,509
				c5.2-0.3,10.3,0.5,15.4,0.3c-5.6,1.9-11.2,3.5-17.1,3.8c-1.9,0-3.7-0.7-5.6-0.8c-4.7-0.6-9.3,0.3-13.8,1.4
				C476.4,511.1,483.6,509.8,490.8,509L490.8,509z M485.5,514.6c7.3,1.5,14.7-1.1,21.6-3.3c-2.5,1.8-5.4,2.8-8.2,4
				c-3.5,1.5-6.9,3.3-10.8,3.6c-6.6,0.4-13.2-1-19.8-1.8C474,516.2,479.7,513.7,485.5,514.6L485.5,514.6z M576.4,318.1
				c-0.5,1.6-1.7,3.4-3.1,5.3c0.5-4-0.1-7.9,0.3-11.9c0.4-3.7,1-7.8,1.8-11.6c0.1,0.2,0.2,0.4,0.3,0.6
				C576.7,306.2,577.8,312.3,576.4,318.1L576.4,318.1z M335.2,40.2c-0.9,0-1.9,0-2.8,0c-3.2,0-6.5-0.1-9.7-0.1c-0.4,0-0.7,0-1.1,0
				C326.1,39.1,330.6,40,335.2,40.2z M200.5,69.9c15.8-8.7,32.8-14.9,49.9-20.6c17.1-5.9,34.8-10.6,53-10.6c0.9,0,1.8,0,2.7,0
				c-2.4,0.7-4.8,1.5-7.1,2.3c-2.4,0.3-4.8,0.7-7.2,1.2c-4.8,0.9-9.6,2.2-14.3,3.7c-25.7,8.3-51.5,16.6-77.4,24.2
				C200.2,70,200.4,69.9,200.5,69.9L200.5,69.9z M112,128.6c16.4-13.7,33.4-27.1,52.5-37c-11.4,9.4-22,19.9-31.4,31.4
				c-7.2,8.6-14.3,17.3-21.2,26.1c-3.6,2.1-7.4,4.1-11.2,5.8c-4.6,2.5-9.1,5.4-12.9,9c-3.7,3.9-6.9,8.2-10.1,12.4
				c-4.7,6.5-9.5,13.1-13.1,20.2c0,0.1-0.1,0.1-0.1,0.1c-1.6,1.6-3.4,3-4.6,4.9c-0.2,0.2-0.3,0.4-0.5,0.6c-2.9,3.3-5.8,6.6-8.3,10.3
				c-0.6,0.7-1.1,1.4-1.6,2.1c2.1-6.1,4.6-12.1,7.5-17.9C70.2,170.3,89.3,147.3,112,128.6L112,128.6z M116.5,162L116.5,162
				c-8,8.4-17.7,15.1-27.9,20.9c1.6-2.3,3.2-4.6,4.9-6.9c2.6-1.8,5.3-3.6,8.1-5c3.6-2.5,6.9-5.2,10.6-7.5c3.3-2.5,6.5-5.3,9.7-7.8
				C120.2,157.8,118.4,160,116.5,162L116.5,162L116.5,162z M78.5,186.5c3.4-2.9,7.1-5.5,11-7.7c-1.4,1.9-2.7,3.9-4.1,5.9
				c-2.2,1.2-4.5,2.4-6.7,3.5c0.1-0.3,0.2-0.6,0.1-0.8C78.8,187.1,78.7,186.7,78.5,186.5L78.5,186.5z M111.9,159
				c-3.3,2.1-6.4,4.3-9.5,6.6c-0.8,0.5-1.6,1-2.4,1.5c2.7-3.6,5.4-7.2,8.2-10.8c6.4-3.1,12.5-6.8,18.1-11.2c5.9-4.5,10.2-10.6,15-16
				c-4.3,6.1-8.8,12.1-14.1,17.4C122.5,151.2,117.1,155,111.9,159L111.9,159z M100.9,163.3c-1.4,1.9-2.9,3.9-4.3,5.8
				c-1,0.6-2,1.2-3,2c-3.3,2.6-7,4.5-10.4,6.9c-3,2.3-6,4.8-8.8,7.3c0.6-0.8,1.2-1.7,1.8-2.5c4.1-5.4,8.3-11.4,13.4-16.1
				c4.1-3.2,8.6-6.1,13.5-8c0.7-0.3,1.4-0.6,2.1-0.9C103.7,159.6,102.3,161.4,100.9,163.3L100.9,163.3z M46.1,225.6
				c1.2-2.5,2.5-5.1,4-7.5c1.6-2.2,3.5-4.3,5.5-6.2c2.7-2.7,4.8-5.9,7.3-8.8c0.2-0.2,0.4-0.4,0.6-0.6c0.3-0.2,0.5-0.4,0.8-0.6
				c0.5,0.3,1.2-0.2,1.6-1c0.1-0.1,0.1-0.2,0.2-0.3c0.8-0.6,1.6-1.2,2.4-1.8c1.6-1.3,2.9-2.9,4.2-4.5c3-1.8,6.4-3.2,9.6-4.7l0.1-0.1
				c-3.8,5.8-7.4,11.7-10.7,17.8c-15.8,31.3-26.5,65.3-31.1,100.1c-0.1-1.1-0.2-2.3-0.3-3.4C38.2,278,39.2,251,46.1,225.6
				L46.1,225.6z M40.3,328.4c2.3,13.9,6.3,27.2,11.8,39.9c-3.5-4.9-7.4-9.4-10.6-14.4c-0.4-0.6-0.7-1.2-1.1-1.8
				C40,344.2,40,336.3,40.3,328.4z M7.2,288.9c0.1,0.1,0.1,0.3,0.2,0.4c0.3,0.4,0.5,0.7,0.8,1.1c0.2,0.4,0.4,0.8,0.6,1.2
				c0.5,1.1,1.1,2.1,1.6,3.2c1.4,4.1,3,8.1,5.2,11.9c1.2,2,2.3,4.1,3.4,6.1c0.1,0.3,0.3,0.5,0.4,0.8c0.8,1.7,1.6,3.3,2.4,5
				c0.3,0.7,0.6,1.5,0.9,2.3c0.3,0.9,0.6,1.8,0.9,2.8c0.3,0.8,0.6,1.5,0.9,2.3c0.3,0.6,0.6,1.2,1,1.8c0.3,0.6,0.7,1.1,1.1,1.7
				c0.5,0.9,1,1.7,1.4,2.6c0,0.1,0.1,0.2,0.1,0.3c1.3,2.5,2.5,4.9,3.5,7.5c1.6,3.8,2.8,7.9,5.1,11.3c2.7,5.5,6.4,10.4,10.2,15.2
				c0.2,0.3,0.5,0.7,0.7,1c0,0,0,0.1,0.1,0.1c0.1,0.2,0.3,0.4,0.4,0.6c-0.3-0.3-0.6-0.6-0.9-0.9c-1.5-1.3-3.1-2.7-4.5-4.2
				c-2.6-3.8-6.7-6.9-8.8-11.1c-2-3.6-4.5-6.9-6.1-10.7c-2-3.1-2.6-6.9-4.4-10.1c-2.5-5.7-7.2-10.3-8.2-16.6c-1-3.2-2.8-6.1-3.9-9.2
				c-0.6-2.3-0.5-4.8-0.9-7.1c-0.1-2.6-1.6-4.6-2.5-6.9c-0.4-1-0.7-2-1-2.9C7.1,288.5,7.1,288.7,7.2,288.9L7.2,288.9z M13.7,338.1
				c-3.2-4.6-5.1-10-6.2-15.5c-1.7-9.7-2.6-19.6-3.7-29.5c-0.2-1.2-0.4-2.5-0.5-3.7c0-0.5-0.1-1.1-0.1-1.7c0-0.3-0.1-0.6-0.1-0.9
				c0,0.1,0.1,0.2,0.1,0.3c0-0.5,0-1,0-1.5c0-0.8,0-1.8,0.3-2.5c0.3,0.7,0.6,1.4,0.7,1.9c0.8,2.7,1.1,5.5,2.1,8.2
				c0.6,1.8,1.8,3.2,2.5,4.9c0.8,2.9,0.6,5.9,1.4,8.8c1,2.5,2.1,5,3.3,7.4c0.9,2.1,1.3,4.4,2.1,6.6c1.6,3.5,3.9,6.5,5.7,9.9
				c1.1,2.1,2,4.1,2.9,6.4c0.5,1.7,0.9,3.5,1.9,5.1c2.1,4.9,5.2,9.3,7.7,14c1.2,2,2.9,3.6,4.5,5.2c2.1,2.3,3.8,5,6.3,7
				c0.9,0.8,1.8,1.7,2.7,2.6c-2.4-2-4.3-4.3-6.8-6.1c-3-2.5-6.7-4.1-9.4-6.9c-0.9-0.8-1.8-1.6-2.7-2.4c-0.2-0.2-0.3-0.4-0.5-0.6
				c-0.4-0.4-0.8-0.9-1.2-1.3C21.2,349.4,17,344,13.7,338.1L13.7,338.1z M311.2,565.9c-13.7,1.6-27.5,1.6-41.2,1.3
				c-16.5-0.3-33-0.8-49.4-2.9c-19.3-2.1-37.5-9.7-54.3-19.1c-16.6-9.2-32.1-20.3-46.4-32.7c-16.5-14.5-31.7-30.9-43-49.9
				c-10.8-17.3-20.7-35.4-27-54.9c-4-11.9-6.6-24.1-8.1-36.5c2.9,2.2,5.7,4.5,8.3,7.1c3.7,3.6,8.1,6.4,11.8,9.9
				c2.5,4.4,5.1,8.8,7.9,13.1c0.3,0.7,0.7,1.3,1,2c0.2,0.4,0.5,0.6,0.7,0.6c6.5,9.7,13.7,19,21.3,27.9
				c18.8,21.3,40.7,39.9,64.3,55.6c20.8,13.7,43.3,24.6,65.7,35.3c22.6,10.5,45.5,21,70,26.1c24.4,4.3,49.3,2.9,73.9,1.3
				C348.7,556.6,330.5,563.7,311.2,565.9L311.2,565.9z M394.7,539.7c-3.8,1.4-7.4,3.3-11.5,3.6c-26.7,3.2-53.8,4.6-80.6,2
				c-14.6-1.8-28.6-6.3-42.2-11.6c-18.9-7.3-37.1-16.1-55.3-25c-17.8-8.8-35.5-18.3-51.8-29.6c-24.7-17.2-47.4-37.6-66.4-61.1
				c-5.4-6.8-10.5-13.7-15.2-21c0-0.6-0.1-1.1-0.5-0.7c-0.2-0.3-0.4-0.6-0.6-0.9c-5.5-11.3-4.1-24.3-3-36.4c1.6-1.3,1.2-3.8,1.5-5.7
				c0.4-5,0.7-10.1,1.7-15c2.9-12.2,8.6-23.8,10-36.5c2.8-15.4-7.4-17.5-4.1-30.2c2-6.9,4.1-13.7,4.6-20.9c0-6.1-0.4-12.4-1.9-18.4
				c-1-3.8-4.7-6.7-4.2-10.8c0.1-1,0.2-2-0.2-2.9c-2.2-4.1-4.1,5.2-4.4,7.1c-1.1,5.7-3.3,11.4-5.1,17c-2.3,8.3-6.2,16-9.2,24
				c-3.1,8.1-4.8,16.6-4.8,25.2c-0.5,10.3,1.9,20.5,3.8,30.5c1.2,6,3,11.8,4.4,17.8c1.5,5.7,4,11.1,5.5,16.9c0.1,5.5-1,11-0.8,16.6
				c0.2,4.7,0.6,9.5,1.8,14.1c-0.6-1.1-1.3-2.2-2.1-3.2c-9-15.8-16.1-32.7-19.8-50.7c-0.8-3.9-1.6-7.8-2.2-11.7
				c-0.4-3.3-1.4-6.6-0.9-9.9c1.9-16.7,5.4-33.2,10-49.3c5.6-18.6,12.3-36.9,21.1-54.3c3.8-7.2,8.1-14.2,12.6-21
				c5.1-2.8,10.1-5.6,15-8.8c5.7-4.1,11.2-8.5,16.2-13.5c5.8-6.2,11.1-12.9,16-19.8c5.1-7.8,11.7-14.7,15.7-23.2
				c0.5-0.3,1-0.4,1.6-0.5c1.6-0.7,1.8-3.6,1-4.9c-2-2.8-8.8,5-10.5,6.9c-4.9,5.3-9.1,11.3-14.8,15.7c-3,2.4-6.2,4.7-9.5,6.8
				c6.8-8.6,13.8-17,20.9-25.4c6.6-7.7,13.8-14.9,21.3-21.6c3.8-3.3,7.6-6.5,11.5-9.5c2.5-2,5.1-3.9,8.1-5
				c13.6-5.9,27.9-10.1,42.2-14.3C232,67.4,244,63.5,256,59.5c1.8-0.8,3.7-1.4,5.6-2c1.6-0.5,3.1-1,4.6-1.6c1.4-0.5,2.9-1.1,4.3-1.6
				c1.6-0.5,3.1-1.1,4.7-1.5c1.5-0.4,3-0.7,4.5-1c0.5-0.1,1.1-0.2,1.6-0.3h0c1.5-0.2,3.1-0.4,4.6-0.6c0.7-0.2,1.4-0.3,2.2-0.5
				c1.5-0.7,3.1-1.4,4.6-2.1c4-0.8,8.1-1.3,12.2-1.7c14.3-0.9,28.6-0.2,42.9-0.2c10.5,0.1,21,0.2,31.4,1.1
				c11.1,3.4,22.2,7.3,33.3,10.8c6.9,4.1,13.5,8.6,20.4,12.8c13.9,8.6,29.3,15.1,39.5,28.4c8.2,10.4,14.9,21.8,21.8,33
				c4.9,8,9.7,16,13.6,24.5c3.2,7.3,5.8,14.9,8.1,22.5c-0.9-2-2-3.9-3.3-5.6c-1.1-1.3-2.7-3.3-3.9-4.6c-2.9-2.8-6.3-5.1-8.9-8.2
				c-0.6-0.7-0.6-1.9-1.5-2.2c-1.1-0.4-1.8,0.9-1.9,1.8c-0.6,2.7,0.9,5.1,1.9,7.4c1.7,3.5,3,7,3.9,10.8c3.5,10.5,4.4,21.6,6.4,32.4
				c1.4,9.9,2.8,19.8,7.5,28.8c3.9,9,8.8,17.5,12.9,26.4c2.7,6.2,5.2,12.2,5.7,19.1c0.1,0.6,0.1,1.2,0.2,1.8
				c0,7.6-0.1,15.3-0.2,22.9c-0.2,13.3-0.6,26.7-2.5,39.9c-1.9,12.7-4.8,24.6-8,37.2c-4.7,17.9-9.4,35.9-18.6,52.1
				c-6.9,11.2-14.9,21.6-23.4,31.5c0.5-0.8,1-1.7,1.4-2.6c3.4-7.5,7.7-14.9,8.5-23.2c1.6-2.5,2.3-5.6,3.6-8.3
				c1.3-3.2,2.7-6.4,4.2-9.6c4.7-10.5,9.6-21.2,12.2-32.5c1.5-7.7-0.6-15.5-1.1-23.2c-0.1-1.9-0.1-3.9-0.6-5.8
				c-1.9-7.8-5.1-15.3-5.1-23.4c-0.1-2.5,0-5.3-0.7-7.7c-0.3-1-0.8-2-0.5-3.1c0.1-1.2,1-2.7,0.1-3.8c-0.2-0.2-0.6-0.2-0.9-0.1
				c-1,0.5-1.7,1.7-1.9,2.7c-1.3,2.4-0.8,5.2-1.1,7.8c-0.4,3.6-0.9,7.2-1.4,10.8c-1,7.1-1.1,14.2-2.5,21.3
				c-1.6,7.2-3.3,14.5-5.3,21.6c-1,3.4-2,6.7-2.6,10.2c-1.6,8,0.3,16,0.6,24.1c0,9.6,1.3,19.5-1.6,28.8c-0.7,1.6-1.4,3.2-2.1,4.8
				c-1,1.9-1.9,3.9-2.8,5.9c-0.4,0.7-0.8,1.5-1.3,2.2c-1.8,2.8-3.9,5.7-5.8,8.7c-0.8,1.4-1.8,2.9-2.3,4.5
				c-5.9,6.4-11.9,12.7-18,18.9c-11.6,11.5-24.2,22.2-39,29.6C409.2,533.5,402,536.7,394.7,539.7L394.7,539.7z M62.6,325.4
				c0.8,4.3,2.1,8.5,2.9,12.8c0.3,3.4,0,6.9,0.1,10.4c-4.2-11.5-6.7-23.5-8.7-35.5c-2.3-10.8-3.2-22.1-1.1-33
				c1.6-7.7,4.9-14.9,8-22.1c3.4-8.9,6.3-18.1,9-27.2c0.6,8.8-0.6,17.6-3.4,25.9c-1.5,7.7-5,14.5-7.4,22c-2.2,6.1-2.9,12.6-2.9,19
				C60.2,306.9,60.6,316.2,62.6,325.4L62.6,325.4z M63,304.9c-0.2-2.9-0.7-5.8-0.9-8.7c0-3.6,0.5-7.2,1.1-10.7
				c1.8-7.3,5.4-13.9,7.3-21.1c1.2-5.9,3.3-11.6,4.3-17.6c0.6-4.4,0.9-8.9,0.9-13.4c2.9,5.1,2.4,11.4,2.9,17.1c-0.3,7.3-3,14-4.7,21
				c-0.9,4.3-0.8,8.8,0.4,12.9c1.3,4,4.1,7.6,4.2,12c-0.2,14.3-7.3,27.2-10.2,41.1c0-0.3,0-0.6-0.1-0.9c-0.2-2.1-0.8-4.1-1.2-6.1
				C65,322.1,63.5,313.6,63,304.9L63,304.9z M534.9,272.8c0,0.8,0,1.7,0.1,2.5c-0.2-0.7-0.4-1.3-0.6-2
				C534.6,273.1,534.7,273,534.9,272.8L534.9,272.8z M534.5,241.5c-1.3-7.9-3.2-15.6-5.3-23.3c2.3,5.8,4.2,11.7,5.1,17.9
				C534.5,237.9,534.5,239.7,534.5,241.5L534.5,241.5z M522.8,203.8c4.2,15.4,9,30.8,10.7,46.8c0.1,1.4,0.2,2.8,0.3,4.1
				c-0.3,3.8-0.5,7.6-0.6,11.5c-1.4-3.6-1.8-7.4-2.9-11.1c-2.2-7.9-3.7-16-6-23.8c-2.3-6.8-4.8-13.5-7.4-20.1
				c-1.7-7-2.4-14.2-4.9-21c-1.9-6.1-4.8-11.7-7.8-17.2c4.1,3.3,7.9,7.4,9.9,12.3c2.6,5.8,5,11.9,8.2,17.5
				C522.6,203.1,522.7,203.4,522.8,203.8L522.8,203.8z M528.8,259.8c-0.8-1.8-1.8-3.6-2.7-5.3c-1.1-2.2-2.3-4.5-3.3-6.7
				c-3-6.5-6.2-12.8-8.4-19.6c-1.1-3.8-1.7-7.8-2.2-11.8c-1.5-9.5-2.9-19.1-4.6-28.6c3.6,8.2,4.4,17.2,6.4,25.9
				c2.7,7.9,6,15.5,8.6,23.4C524.6,244.7,526.8,252.2,528.8,259.8L528.8,259.8z M502.5,377.4c0.5-7.4,0-14.8,0.3-22.2
				c1.3,5.3,3.4,10.4,4.9,15.6c0.5,6.8,2.3,13.5,2.6,20.4c0.2,5.7-1.8,11.2-3.8,16.4c-3.5,10.3-8.7,19.9-12.8,30
				c1.5-5.7,2.3-11.6,2.1-17.5c0.4-7.1,1.6-14.2,3.5-21.1c0.8-2.7,2.4-6.1,2.9-9.2C503.1,385.8,502.5,381.5,502.5,377.4L502.5,377.4
				z M500.3,376.7c-0.6,4.8,0.1,10.4-1.3,15.1c-3.6,8.4-5.7,17.2-6.4,26.3c-0.4,6.2,0.2,12-1.1,18.3c-0.3-5.2,0-10.5-0.6-15.7
				c-0.5-6.3-1.6-12.5-0.4-18.8c2.8-11.8,6.7-23.4,8.7-35.4c0.8-6.4,1-12.8,2-19.2C501,357.2,500.9,367,500.3,376.7L500.3,376.7z
				 M475.1,479.6L475.1,479.6c0,0,0-0.1,0-0.1L475.1,479.6z M421.7,532.2c11.6-6.2,21.7-14.6,31.2-23.6c2.7-1,5.6-1.5,8.4-2
				c1.7-0.4,3.3-0.9,4.9-1.4C452.3,515.6,437.6,525.2,421.7,532.2L421.7,532.2z M513.9,469.3c4.6-7.2,8.4-14.9,13.7-21.6
				c6.7-8.3,15.1-15,23-22.1c8.2-6.5,16.9-12.4,24.7-19.4c7.5-6.1,14.5-12.8,20.5-20.4c-7.5,12.2-16.2,23.6-24.6,35.2
				c-5.2,6.7-12.1,11.7-18.8,16.7c-3,2.3-6.4,4.1-8.8,7c-5.5,6.8-11.7,12.7-17.1,19.6c-2.3,2.7-5.7,4.2-8.5,6.3
				c-2.9,2.2-5.7,4.5-9.1,5.7C510.7,474.2,512.3,471.7,513.9,469.3L513.9,469.3z M503.4,482.1c2.1-1.7,5-1.9,7.4-3
				c4.8-2.3,8.8-6.1,13.5-8.7c3-2.1,5-5.1,7.4-7.9c4.2-4.8,8.9-9.2,12.9-14.2c2.1-2.4,4.9-4,7.5-5.8c6.1-4.6,12.6-8.8,17.8-14.5
				c3.8-4.1,7-8.7,10.2-13.2c5.7-7.9,11.8-15.4,17-23.7c-3,8-6.3,16.1-10.6,23.4c-1.9,2.9-4.5,5.3-6.4,8.2c-1.4,2.1-2.7,4.2-4.3,6.1
				c-4.2,4.7-8.8,9.2-13.6,13.3c-3.3,2.6-5.9,6.1-8.6,9.3c-2.6,3.2-4.8,6.6-7.7,9.6c-3.4,3.3-6.5,7-10.1,10.3
				c-5.2,4.5-11.5,7.5-18,9.5c-5.2,1.8-11.1-0.1-16.1,2.7C502.1,483.1,502.8,482.6,503.4,482.1L503.4,482.1z M480.8,493.7
				c-1.2,1-2.4,2-3.6,2.9c-4.9,3-10.2,5.4-15.6,7.4c-2,0.6-3.9,1.2-5.9,1.9c3.2-3.2,6.4-6.4,9.6-9.6c15-16.1,30-32.5,41.6-51.3
				c7.4-12.5,12-26.3,15.8-40.2c4.4-15.8,8.4-31.7,11.1-47.9c1.1-6.5,1.8-13,2.3-19.6c0-1,0-2.1,0.1-3.2v0c0.1-2.1,0.3-4.2,0.5-6.3
				c0.1-1.1,0.2-2.2,0.3-3.4c0.1-11.7,1.2-23.6,0.3-35.3c0-11.6-0.2-23.2-1.2-34.7c0.5-7.1,1-14.2,0.1-21.2
				c-1.7-9.8-5.5-19.1-8.6-28.5c-1.2-3-2.8-5.7-4.3-8.6c-2-7.2-4-14.3-6.1-21.4c-6.2-22.7-19.1-42.5-31.4-62.3
				c-17.1-27.8-24.2-30.2-51.2-46.2c19.5,8,38.7,17.4,56.5,29c19,13.4,36.7,29.2,51.1,47.5c14.3,18,21.9,40.2,27,62.4
				c2.9,13.1,4.9,26.4,5.5,39.8c0.3,15.3-0.5,30.6-1.6,45.8c-0.6-0.9-1.1-1.8-1.8-2.7c-2.3-2.8-4-5.9-5.6-9.1
				c-0.1-3.6-2.1-6.9-2.5-10.5c-1-8-0.3-16.2,0.7-24.2c0.8-4.4,1.7-8.9,1.7-13.5c-0.5-7.3-1.9-14.5-4.2-21.4
				c-1.4-4.9-3.4-9.6-5.9-14c-2-2.8-4-5.6-5.9-8.4c-1.1-2.4-2.5-4.8-3.7-7.2c-1.7-3.5-2.6-7.9-4.7-11c-0.9-0.8-1.3,0.5-1.2,1.2
				c-0.5-0.8-0.8-1.8-1.7-2.4c-0.2-0.1-0.5-0.1-0.6,0c-0.9,1.3,0,3.1,0.1,4.6c0.8,5.4,1.3,10.9,2.9,16.1c2,5.9,4,11.9,5.5,18
				c3.8,10.6,3.5,21.6,4.5,32.8c0.7,13.8,6,26.7,11.6,39.1c1.6,3,3.1,6.1,5.1,9c1.9,2.4,3.8,4.9,5.5,7.5c-1.3,16.7-3.2,33.4-7,49.7
				c-4.9,19.6-13.2,38.2-22.2,56.1c-9.2,17.9-18.7,35.8-29.3,52.8C505,468.5,494.3,482.6,480.8,493.7L480.8,493.7z M561.1,263.5
				c-0.1-0.5-0.2-0.9-0.3-1.4c-1.1-4.2-2.3-8.4-2.7-12.7c-0.2-4.2,0.3-8.5,0.5-12.9c0.6-10.5,2.9-21.6-1.3-31.7
				c3.4,8.2,5.6,16.9,6,25.8c-0.2,5-1.4,9.9-1.8,14.8C561,251.5,560.8,257.5,561.1,263.5L561.1,263.5z M544,192.7
				c-2.3-5.9-3.3-12.1-4.2-18.3c3,5.2,5.6,10.5,8.3,15.8c3.9,5.3,5.7,11.9,7.6,18.2c1.5,5.2,0.4,10.6,0.4,15.9
				c-0.5,5.7-0.8,10.9-0.9,16.7c-0.8,8.3,2.4,16.1,4.2,24c-2.5-5.7-4.3-11.7-5.6-18c-1.2-8.1-1.5-15.8-2.2-24
				c-0.4-6.3-2.2-12.2-4-18.2C546.6,200.9,545.6,196.7,544,192.7L544,192.7z"/>
			<path class="st0" d="M7.9,290.5L7.9,290.5C7.9,290.5,7.9,290.5,7.9,290.5C7.9,290.5,7.9,290.5,7.9,290.5L7.9,290.5z"/>
			<path class="st0" d="M574.3,400.4L574.3,400.4C574.3,400.5,574.3,400.5,574.3,400.4L574.3,400.4L574.3,400.4L574.3,400.4z"/>
			<path class="st0" d="M217,26.9c-0.2,0.6-0.3,1.9,0.5,2.2c1.1-0.1,2.2-0.1,3.2,0c0.2,0.8,0.2,1.5,0.5,2.3c-0.1,0.6-0.1,1.2,0,1.8
				c0.1,0.5,0.3,1.1,0.8,1.4c1.1,0.5,1.2-2.1,0.7-2.7c0.1-0.9,0.3-1.7,0.4-2.6c1.1,0.1,2.9,0.9,3.1-0.8c0.2-0.8,0.1-1.8-0.4-2.4
				c-0.5-0.5-1.1-1-1.3-1.7c0.5-0.3,1.1-0.7,1.7-0.6c0.8-0.2,0.8-1.6,0.6-2.2c-0.4-1.2-2-0.2-2.8,0c0.2-5.3-1.9-3.7-1.3,0.5
				c-0.2,0.1-0.4,0.2-0.6,0.2c-0.7-0.9-1.4-1.6-2.1-2.6c-0.1-0.2-0.3-0.3-0.5-0.2c-1.3,1,0,2.6,0.1,3.9c-1.1,0.6-2.5,0.7-3.5,1.4
				C215.7,25.4,215.8,27.1,217,26.9L217,26.9z"/>
			<path class="st0" d="M205.4,42.6c-0.3-0.2-0.5,0.3-0.6,0.5c-0.2,0.8-0.2,1.6-0.3,2.5c-0.7-0.5-1.2-1.5-2.1-1.8
				c-0.9,0.4-0.3,2-0.3,2.8c-1,0.2-2.1-1.1-3.1-0.3c-0.5,0.7-0.4,2.1,0.5,2.3c-0.9,0.5-1.7,1.2-1.3,2.3c0.1,0.2,0.2,0.6,0.5,0.6
				c1.4-0.3,2.8-0.4,4.3-0.4c0.2,0.7,0.5,1.4,0.9,2c0,0.5,0,0.9,0.1,1.4c0,0.3,0.3,1.1,0.8,0.8c0.8-0.8,0.2-2.1,0.4-3.2
				c0.6,0.2,0.9-0.6,1-1c0.9,0,2.2,0.3,2.2-0.9c0.3-1.3-0.6-2-1.6-2.7c0.9-0.5,2-1.1,1.9-2.3c0-0.5-0.2-1.5-0.9-1.4
				c-0.7,0.2-1.4,0.7-2,1.1C205.6,44.1,205.9,43.1,205.4,42.6L205.4,42.6z"/>
			<path class="st0" d="M242.3,37.1c0.4-0.1,0.9-0.1,1.3-0.1c0.4,0.7,0.5,2.2,1.6,2.1c1,1,1.2-1.6,0.7-2c0.8,0,1.7,0.1,2.4-0.3
				c0.6-0.4,0.6-1.2,0.5-1.8c-0.1-0.8-0.9-1.2-1.5-1.6c0.3-0.5,0.4-1.2,0.2-1.8c-0.1-0.2-0.3-0.6-0.6-0.4c-0.4,0.4-0.8,0.7-1.2,1.1
				c-0.4-0.2-0.6-0.4-0.9-0.7c-0.3-0.2-0.7-0.1-1.1-0.1c-0.3,0.1-0.5,0.5-0.6,0.8c-0.3,0.2-0.6,0.4-0.8,0.7
				c-0.5,0.5-0.5,1.4-0.2,2.1C241.6,35.5,241.6,37,242.3,37.1L242.3,37.1z"/>
			<path class="st0" d="M515.7,89c0.6,1.3,0.7,2.7,1.3,4c0.1,0.2,0.2,0.6,0.5,0.6c0.3-0.1,0.4-0.5,0.4-0.8c1.1,0.7,0.4-2.7,0.6-3.2
				c1.4,0.2,5.2,1.4,4.8-1.2c0-0.3-0.2-0.7-0.5-0.8c-1.5-0.5-2.9-1.3-4.2-2.4c0-0.1,0-0.2,0-0.2c0.7-0.3,1.4-0.4,2.1-0.5
				c0.4-0.1,1-0.1,1.2-0.5c0.3-0.7,0.3-2-0.5-2.4c-0.8-0.3-1.6,0.2-2.3,0.5c-0.1-2-1-0.6-1,0.5c-0.5,0.2-0.9,0.5-1.3,0.8
				c-0.3-0.4-0.6-0.8-1-1.1c-0.2-0.2-0.6-0.7-1-0.4c-0.6,0.6-0.3,1.7-0.2,2.5c-0.8,0.2-1.5,0.5-2.3,0.6c-0.5,0.1-0.5,0.8-0.4,1.3
				c-0.7,0.4-1.4,0.7-2,1.2c-0.4,0.4-0.4,1.3,0.1,1.7C511.8,88.8,513.8,88.7,515.7,89L515.7,89z M518.8,87.4
				c0.1,0.1,0.3,0.2,0.4,0.3l-0.1,0c-0.1,0-0.2,0-0.3-0.1C518.8,87.6,518.8,87.5,518.8,87.4L518.8,87.4z"/>
			<path class="st0" d="M597.4,183.8L597.4,183.8c0,0.6,0.3,1.5,1,1.3c0.7-0.1,1.4,0.4,2,0.6c0.1,0.5,0.2,1,0.3,1.5
				c0.1,0.5,0.2,1,0.5,1.5c0.1,0.2,0.5,0.2,0.6,0c0.2,0,0.4-0.2,0.5-0.4c0.8,1.3,1.3-0.6,1.2-1.4c1.3,0.4,2.6,0.7,3.7,1.7
				c0.3,0.2,0.7-0.1,0.8-0.4c0.3-0.8,0.4-2-0.3-2.6c-1.1-0.9-2-1.9-3-2.9c0.5-0.7,0.6-2.6-0.5-2.7c0,0,0-0.1,0-0.1
				c0-0.3,0-0.6-0.2-0.9c0-0.6-0.2-3.4-1.2-2.3c-0.6,1-0.6,2.3-0.8,3.4c-0.6-0.5-1.2-1.1-1.9-1.6c-0.2-0.1-0.4-0.2-0.5,0
				c-0.7,0.6-0.3,1.6-0.2,2.4c-0.9,0.1-1.9,0.2-2.8-0.2c-0.4-0.1-1-0.2-1.2,0.3c-0.4,0.7-0.4,1.8,0.2,2.3
				C596.1,183.5,596.9,183.3,597.4,183.8L597.4,183.8z M601.4,186.1c0,0.1,0,0.1-0.1,0.2c0-0.1,0-0.2-0.1-0.3
				C601.3,186.1,601.4,186.1,601.4,186.1L601.4,186.1z"/>
			<path class="st0" d="M551.6,85c-1.1,0.4-1.6,1.5-1.2,2.6c0.1,0.2,0.2,0.4,0.4,0.5c1.2,0.2,2.5,0.3,3.7,0.6
				c0.2,0.7,0.3,1.3,0.4,2.2c0,0.2,0.2,0.8,0.5,0.6c0.1,0.2,0.2,0.5,0.5,0.6c1.1,0,0.8-1.9,1-2.6c1.2,0.4,2.4,1,3.6,1.4
				c0.5,0.1,0.8-0.5,0.9-0.9c0.8-2.4-2.1-3.3-3.5-4.7l0,0c0.1-0.5,0.1-0.9,0.2-1.4c1.1-0.5,1.3-2.7,0.3-3.3
				c-0.5-1.9-1.3-0.2-1.5,0.8c-0.8,0.3-1.6,0.5-2.4,0.6c-0.5-0.7-1-1.4-1.4-2c-0.2-0.2-0.4-0.2-0.5,0.1c-0.3,0.6,0,1.4,0.2,2
				c-0.7-0.1-1.4-0.2-2.1-0.4c-0.5-0.1-0.6,0.6-0.7,1C549.6,83.8,550.9,84.3,551.6,85L551.6,85z"/>
			<path class="st0" d="M32.7,382.4c-1.1-0.2-2.3-0.3-3.4-0.6c0.2-0.9,1.6-4.8-0.2-4.7c-1,1.1-1.4,2.8-2.2,4
				c-1.1-0.3-2.2-0.8-3.2-1.2c-0.5-0.2-1.1-0.4-1.4,0.1c-0.8,1.6,0.4,3.3,1,4.7c-1.4-0.5-2.6-1.3-4-1.9c-0.4-0.1-0.6,0.6-0.6,0.9
				c-0.2,1.6,2.1,2,3.2,2.7c-0.4,0.6-0.4,1.4-0.1,2c0.4,1.1,1.8,0,2.3-0.5c0.9,0.8,1.6,1.8,2,2.9c0.6,1,1.1-0.3,1.1-0.9
				c0.7,0.3,1-0.2,1.1-0.9c0.7,0.4,1-0.5,1.1-1c0-0.5,0-1.3-0.6-1.5c-0.3-0.1-0.5-0.1-0.8-0.2c0-0.2,0.1-0.3,0.1-0.5
				c1.5-0.3,3.1-0.3,4.7-0.3c0.5,0,0.7-0.8,0.7-1.2C33.6,383.5,33.5,382.5,32.7,382.4L32.7,382.4z M24.8,384.2
				c-0.3-0.5-0.5-1-0.8-1.5c0.3,0.1,0.6,0.3,0.9,0.4c0,0.3,0.1,0.6,0.2,0.9C25,384.1,24.9,384.2,24.8,384.2L24.8,384.2z"/>
			<path class="st0" d="M11.5,260.9c-0.5,0.5-1.3,0.3-1.7,0.9c-0.4,0.6-0.5,1.7,0.1,2.1c0.4,0.2,0.7-0.1,1-0.2
				c0.8-0.6,1.8-0.7,2.8-0.8c0.1,1,0.9,1.5,1.5,0.5c0.8,1.2,0.2,2.6,0.6,3.9c0.4,0.8,0.9-0.3,0.8-0.7c0.3,0.6,0.6,1.2,0.7,1.8
				c0,0.1,0.1,0.3,0.3,0.4c0.2,0.4,0.4,0.9,0.8,1.2c0.4,0.2,0.7-0.3,0.8-0.6c1.4-0.5,0.6-2.9,0.4-4.1c0.3-0.8,0.1-1.6,0-2.4
				c1.6,0,3.3,0.1,4.9,0c0.2,0,0.3-0.1,0.4-0.2c0.5-0.6,0.5-1.7,0-2.3c-0.7-0.6-1.7-0.7-2.6-1.2c1.4-0.6,0.8-3.2-0.8-3
				c-0.1-0.3-0.2-0.5-0.4-0.7c-0.2-0.2-0.5-0.4-0.7-0.6c0.7-0.9,1.7-1.7,1.7-2.9c0-0.4-0.1-1-0.5-1.2c-0.1,0-0.2,0-0.3,0
				c-1,0.8-1.7,1.9-2.4,2.9c-0.1-0.1-0.2-0.2-0.2-0.3c0-0.5,0-2-0.7-1c-1.3-2.9-1.2,1.7-1.1,2.7c-0.2-0.2-0.5-0.3-0.7-0.2
				c-1.5-1.1-2.7-2.9-4.4-3.6c-2.2,1.1,0.8,5.4,1.3,7c-1.4,0.1-3-0.2-4.4,0.4c-0.3,0.2-0.4,0.7-0.4,1C8.1,261.4,10.4,261,11.5,260.9
				L11.5,260.9z M19,260.1c0.1,0,0.1-0.1,0.2-0.1l0,0c0.1,0,0.1,0.1,0.2,0.1C19.3,260.1,19.1,260.1,19,260.1L19,260.1z M18.8,256.6
				c0.2-0.2,0.3-0.3,0.5-0.5c0.1,0.1,0.3,0.2,0.4,0.4c-0.3,0.1-0.7,0.2-1,0.3C18.7,256.7,18.8,256.6,18.8,256.6z M17.8,254.6
				L17.8,254.6c0,0.1,0,0.2,0,0.3l-0.1,0.1C17.8,254.9,17.8,254.7,17.8,254.6z M16.6,262.7h0.2c0.1,0.3,0.2,0.6,0.3,0.9l0,0.4
				c-0.1-0.4-0.3-0.7-0.5-1.1C16.6,262.9,16.6,262.8,16.6,262.7z M14.6,257.2c0.1,0.2,0.2,0.5,0.3,0.7v0c-0.1,0-0.2,0.1-0.3,0.1
				C14.6,257.7,14.6,257.5,14.6,257.2L14.6,257.2z M13.6,255.4l0.2,0.2c0,0.3-0.1,0.5-0.1,0.8c-0.1-0.3-0.2-0.6-0.4-0.8l0,0
				c-0.1-0.2-0.2-0.5-0.3-0.7C13.2,255,13.4,255.2,13.6,255.4L13.6,255.4z"/>
			<path class="st0" d="M561.2,480.8c0.2-1.5-0.7-2.2-2.1-2c-0.2-0.2-0.4-0.4-0.6-0.6c-0.1-0.2-0.3-0.3-0.4-0.5l0-0.2
				c0.9-0.5,2.3-0.8,2.6-1.9c0.3-2-0.6-2.1-2.2-1.2c0-0.5,0-1.3-0.5-1.5c-0.3-0.1-0.4,0.2-0.5,0.4c-0.2,0.6-0.4,1.2-0.5,1.9
				c-0.1,0-0.2,0.1-0.3,0.1l0,0c-0.1-1.4,0.2-3.1-0.8-4.2c-1.2-0.3-1.2,1.9-1.3,2.7c-2.4-2.6-2.1,1.6-1.8,3.1
				c-0.2,0.1-0.5,0.1-0.8,0.1c-1.4,0.2-2.9,0.5-4.4,0.5v0c-0.5,0.1-0.5,0.8-0.4,1.2c0.1,0.9,1.1,0.6,1.7,0.9
				c-0.9,0.4-1.7,0.9-2.7,1.2c-0.4,0.1-0.4,0.8-0.4,1.1c0,0.3,0.1,0.8,0.5,0.8c2.1-0.5,4.2-0.4,6.4-0.3c-0.6,1.5,0.6,3,2,3.4
				c0.1,0.1,0.2,0.2,0.4,0.3c0.3,0.1,0.6,0,0.7-0.4c0.6-0.5,0.9-1.3,1-2.1c0.1,0.1,0.2,0.1,0.4,0.1c0.3-0.1,0.4-0.4,0.4-0.7
				c0.9-0.3,2.1,0,2.9,0.4c0.2,0.2,0.5,0.4,0.8,0.2C562.3,482.9,562.2,481.2,561.2,480.8L561.2,480.8z M554.1,476.7
				c0-0.3-0.1-0.6-0.1-0.9c0.2,0.2,0.5,0.5,0.7,0.7C554.4,476.6,554.2,476.7,554.1,476.7L554.1,476.7z M555.6,475L555.6,475
				L555.6,475c0-0.3,0-0.5,0-0.8c0,0.1,0,0.2,0,0.3C555.6,474.7,555.7,474.8,555.6,475L555.6,475L555.6,475z"/>
			<path class="st0" d="M547.9,309.8c0.6,0.1,1.1,0.1,1.7,0.2c0.6,1.4,0.8,3.1,1.8,4.3c1.1,0.1,0.7-3.2,0.8-4c0.8,0.1,1.6,1.8,2,0.1
				c1.1,0,3.3,0.5,3.2-1.2c0-1.6-1.9-1.8-3-2.4c0.9-0.4,1.8-1.2,1.5-2.3c0-0.3-0.2-0.8-0.6-0.8c-0.9,0.3-1.6,1.1-2.4,1.5
				c0.1-0.9-0.1-2.1-1-2.5c-0.1-0.3-0.1-0.9-0.5-1c-0.3,0.2-0.4,0.7-0.2,1l0,0c-0.8,0.5-0.8,1.6-0.7,2.4c-0.2-0.4-0.5-0.9-0.7-1.3
				c-0.1-0.2-0.4-0.2-0.5-0.1c-0.5,0.6-0.2,1.5,0,2.1c-0.6,0.3-0.8,1-0.6,1.6c-0.3,0.2-0.7,0.3-1,0.6
				C547.4,308.6,547.3,309.5,547.9,309.8L547.9,309.8z M553.9,308.4c0.1,0.1,0.2,0.1,0.4,0.2c-0.2,0-0.3,0-0.5,0h0
				c-0.1-0.1-0.2-0.3-0.3-0.4C553.6,308.2,553.8,308.3,553.9,308.4C554,308.4,553.9,308.4,553.9,308.4L553.9,308.4z M551.5,310.2
				c0,0.2,0,0.4,0,0.6c0,0.4,0,0.9-0.1,1.5l0-0.1c-0.3-0.6-0.6-1.4-0.8-2C550.8,310.1,551.1,310.1,551.5,310.2L551.5,310.2z"/>
		</g>
	</g>
</g>
</svg>
