<?xml version="1.0" standalone="no"?>
<!DOCTYPE svg PUBLIC "-//W3C//DTD SVG 20010904//EN"
 "http://www.w3.org/TR/2001/REC-SVG-20010904/DTD/svg10.dtd">
<svg version="1.0" xmlns="http://www.w3.org/2000/svg"
 width="736.000000pt" height="736.000000pt" viewBox="0 0 736.000000 736.000000"
 preserveAspectRatio="xMidYMid meet">

<g transform="translate(0.000000,736.000000) scale(0.100000,-0.100000)"
fill="#000000" stroke="none">
<path d="M3520 7109 c-192 -21 -402 -69 -607 -140 -155 -54 -248 -93 -493
-209 -423 -201 -538 -237 -829 -265 -90 -8 -192 -22 -225 -31 -281 -72 -493
-328 -562 -678 -27 -137 -29 -397 -5 -691 11 -143 25 -415 31 -605 15 -480 48
-1340 60 -1550 57 -969 227 -1382 705 -1714 116 -81 169 -112 463 -268 311
-164 379 -207 608 -379 305 -230 435 -306 601 -351 109 -29 314 -29 473 1 63
12 180 33 260 48 139 26 158 27 440 25 327 -2 450 7 578 44 332 96 586 318
934 814 218 312 290 455 332 661 9 42 23 182 31 310 24 364 32 415 136 869 39
168 81 368 94 445 96 562 23 967 -233 1307 -39 51 -136 163 -217 248 -385 405
-458 512 -551 801 -67 210 -91 271 -133 336 -53 82 -138 158 -266 238 -149 94
-194 127 -308 231 -288 261 -325 289 -474 365 -111 57 -247 101 -378 124 -111
20 -351 27 -465 14z m440 -55 c109 -18 271 -69 359 -114 131 -65 214 -128 396
-295 146 -134 225 -196 375 -296 249 -165 303 -239 400 -549 101 -325 151
-398 558 -830 83 -89 186 -207 228 -263 250 -336 311 -723 204 -1313 -11 -62
-49 -237 -84 -390 -102 -441 -118 -542 -136 -874 -13 -231 -22 -289 -66 -419
-62 -187 -164 -358 -396 -669 -134 -179 -296 -357 -403 -442 -79 -63 -190
-128 -285 -167 -143 -59 -187 -64 -625 -73 -352 -6 -413 -10 -510 -29 -276
-55 -383 -71 -476 -71 -242 0 -413 71 -724 301 -389 287 -393 290 -725 464
-210 110 -336 182 -425 243 -397 275 -587 668 -655 1352 -23 235 -62 1059 -80
1695 -16 584 -27 771 -53 955 -6 47 -12 168 -12 270 0 158 4 197 22 266 83
311 241 514 466 599 80 30 149 41 332 55 239 18 324 45 705 220 390 179 605
262 827 320 296 77 539 94 783 54z"/>
</g>
</svg>
